<svg xmlns="http://www.w3.org/2000/svg" width="49.986" height="49.987" viewBox="0 0 49.986 49.987"><defs><style>.a{fill:#260;}.b{fill:none;}</style></defs><path class="a" d="M22.828,2A20.828,20.828,0,1,0,43.656,22.828,20.836,20.836,0,0,0,22.828,2Zm0,6.248A6.248,6.248,0,1,1,16.58,14.5,6.24,6.24,0,0,1,22.828,8.248Zm0,29.576a15,15,0,0,1-12.5-6.707c.062-4.145,8.331-6.415,12.5-6.415,4.145,0,12.434,2.27,12.5,6.415A15,15,0,0,1,22.828,37.824Z" transform="translate(2.166 2.166)"/><path class="b" d="M0,0H49.987V49.987H0Z"/></svg>