<svg xmlns="http://www.w3.org/2000/svg" width="22.756" height="22.756" viewBox="0 0 22.756 22.756"><defs><style>.a{fill:#fff;}.b{fill:none;}</style></defs><g transform="translate(0 0.001)"><path class="a" d="M11.481,2a9.481,9.481,0,1,0,9.481,9.481A9.485,9.485,0,0,0,11.481,2Zm0,2.844A2.844,2.844,0,1,1,8.637,7.689,2.841,2.841,0,0,1,11.481,4.844Zm0,13.464a6.827,6.827,0,0,1-5.689-3.053c.028-1.887,3.793-2.92,5.689-2.92s5.66,1.033,5.689,2.92A6.827,6.827,0,0,1,11.481,18.308Z" transform="translate(-0.104 -0.104)"/><path class="b" d="M0,0H22.756V22.756H0Z"/></g></svg>