<svg xmlns="http://www.w3.org/2000/svg" width="24.801" height="19.398" viewBox="0 0 24.801 19.398"><defs><style>.a{fill:#fff;}</style></defs><g transform="translate(0 0.001)"><path class="a" d="M674.1,1244.1v2.7a.353.353,0,0,1-.4.4H671a.353.353,0,0,1-.4-.4v-2.7a.353.353,0,0,1,.4-.4h2.7a.353.353,0,0,1,.4.4Zm0-5.3v2.7a.353.353,0,0,1-.4.4H671a.353.353,0,0,1-.4-.4v-2.7a.353.353,0,0,1,.4-.4h2.7a.353.353,0,0,1,.4.4Zm0-5.3v2.7a.353.353,0,0,1-.4.4H671a.353.353,0,0,1-.4-.4v-2.7a.353.353,0,0,1,.4-.4h2.7a.367.367,0,0,1,.3.1C674.1,1233.2,674.1,1233.3,674.1,1233.5Zm21.3,10.6v2.7a.353.353,0,0,1-.4.4H676.4a.353.353,0,0,1-.4-.4v-2.7a.353.353,0,0,1,.4-.4H695a.354.354,0,0,1,.4.4Zm-21.3-15.9v2.7a.353.353,0,0,1-.4.4H671a.353.353,0,0,1-.4-.4v-2.7a.353.353,0,0,1,.4-.4h2.7a.367.367,0,0,1,.3.1C674.1,1228,674.1,1228,674.1,1228.2Zm21.3,10.6v2.7a.353.353,0,0,1-.4.4H676.4a.353.353,0,0,1-.4-.4v-2.7a.353.353,0,0,1,.4-.4H695a.354.354,0,0,1,.4.4Zm0-5.3v2.7a.353.353,0,0,1-.4.4H676.4a.353.353,0,0,1-.4-.4v-2.7a.353.353,0,0,1,.4-.4H695a.367.367,0,0,1,.3.1C695.4,1233.2,695.4,1233.3,695.4,1233.5Zm0-5.3v2.7a.353.353,0,0,1-.4.4H676.4a.353.353,0,0,1-.4-.4v-2.7a.353.353,0,0,1,.4-.4H695a.367.367,0,0,1,.3.1C695.4,1227.9,695.4,1228,695.4,1228.2Z" transform="translate(-670.6 -1227.8)"/></g></svg>