<svg xmlns="http://www.w3.org/2000/svg" width="25.854" height="20.692" viewBox="0 0 28.854 24.692"><defs><style>.a{fill:none;}.b,.c{stroke:none;}.c{fill:#260;}</style></defs><g class="a" transform="translate(-41.422 -41.421)"><path class="b" d="M45.608,55.865l0,0-2.069-2.069A7.246,7.246,0,0,1,53.792,43.544l2.069,2.069,2.045-2.045A7.246,7.246,0,1,1,68.153,53.816l-12.3,12.3Z"/><path class="c" d="M 55.85545349121094 63.28485488891602 L 66.7386474609375 52.40163803100586 C 67.72955322265625 51.41074752807617 68.27527618408203 50.09329605102539 68.27527618408203 48.69196701049805 C 68.27527618408203 47.29062652587891 67.72955322265625 45.9731559753418 66.73862457275391 44.98222732543945 C 65.74775695800781 43.99134826660156 64.43030548095703 43.44564819335938 63.02896499633789 43.44564819335938 C 61.62761688232422 43.44564819335938 60.31013488769531 43.99135589599609 59.3192253112793 44.98223876953125 L 57.2746467590332 47.02681732177734 L 55.86043548583984 48.44103622436523 L 54.44621658325195 47.02681732177734 L 52.37738418579102 44.95796585083008 C 51.38650512695313 43.96708679199219 50.06904602050781 43.42138671875 48.66769409179688 43.42138671875 C 47.2663459777832 43.42138671875 45.9488639831543 43.96709823608398 44.95798492431641 44.95795822143555 C 42.91244506835938 47.0035285949707 42.91244506835938 50.33186721801758 44.95796585083008 52.37738800048828 L 47.02679443359375 54.44621658325195 L 48.43959426879883 55.8590087890625 L 48.43460845947266 55.8640022277832 L 55.85545349121094 63.28485488891602 M 55.85545349121094 66.11327362060547 L 45.60760498046875 55.86541748046875 L 45.61258697509766 55.86042785644531 L 43.54375457763672 53.79159545898438 C 40.71391677856445 50.96176528930664 40.71391677856445 46.3736457824707 43.54375457763672 43.54375839233398 C 44.95869064331055 42.12884140014648 46.81319427490234 41.42138290405273 48.66769027709961 41.42138290405273 C 50.52218627929688 41.42138290405273 52.37667846679688 42.12884140014648 53.79159545898438 43.54375839233398 L 55.86043548583984 45.61260604858398 L 57.90501403808594 43.56802749633789 C 59.31996154785156 42.15310668945313 61.17446517944336 41.44564819335938 63.02896118164063 41.44564819335938 C 64.88345336914063 41.44564819335938 66.73793792724609 42.15310668945313 68.15284729003906 43.56802749633789 C 70.98275756835938 46.39790725708008 70.98275756835938 50.98602676391602 68.15284729003906 53.81586837768555 L 55.85545349121094 66.11327362060547 Z"/></g></svg>
