<svg xmlns="http://www.w3.org/2000/svg" width="49.986" height="49.987" viewBox="0 0 49.986 49.987"><defs><style>.a{fill:none;}.b{fill:#260;}</style></defs><path class="a" d="M0,0H49.987V49.987H0Z"/><path class="b" d="M1065.33,1545.1a3.523,3.523,0,0,1,2.175.836,2.569,2.569,0,0,1,.836,2.175,3.523,3.523,0,0,1-.836,2.175,3.18,3.18,0,0,1-2.175.836H1065l-2.677,15.39a3.987,3.987,0,0,1-1,1.84,2.515,2.515,0,0,1-1.84.669h-29.609a2.515,2.515,0,0,1-1.84-.669,3.3,3.3,0,0,1-1-1.84l-2.677-15.39h-.335a3.522,3.522,0,0,1-2.175-.836,3.181,3.181,0,0,1-.836-2.175,3.524,3.524,0,0,1,.836-2.175,3.18,3.18,0,0,1,2.175-.836Zm-33.123,18.4a1.445,1.445,0,0,0,1-.5,1.229,1.229,0,0,0,.334-1l-.669-9.7a1.446,1.446,0,0,0-.5-1,1.23,1.23,0,0,0-1-.334,1.446,1.446,0,0,0-1,.5,1.229,1.229,0,0,0-.334,1l.669,9.7a1.445,1.445,0,0,0,.5,1c.167.334.5.334,1,.334Zm9.368-1.506v-9.7a1.511,1.511,0,0,0-3.011,0v9.7a1.424,1.424,0,0,0,2.509,1C1041.576,1562.832,1041.576,1562.5,1041.576,1562Zm9.033,0v-9.7a1.511,1.511,0,0,0-3.011,0v9.7a1.424,1.424,0,0,0,2.509,1A1.011,1.011,0,0,0,1050.609,1562Zm8.03.167.669-9.7a1.794,1.794,0,0,0-.334-1,1.908,1.908,0,0,0-1-.5,1.794,1.794,0,0,0-1,.334,1.446,1.446,0,0,0-.5,1l-.669,9.7a1.794,1.794,0,0,0,.334,1,1.446,1.446,0,0,0,1,.5h.167a1.183,1.183,0,0,0,1.338-1.338Zm-26.766-28.1-2.175,9.535h-3.011l2.342-10.2a6.253,6.253,0,0,1,2.007-3.346,5.846,5.846,0,0,1,3.68-1.338h3.847a1.775,1.775,0,0,1,1.506-1.506h8.866a1.775,1.775,0,0,1,1.506,1.506h3.848a5.845,5.845,0,0,1,3.68,1.338,5.385,5.385,0,0,1,2.007,3.346l2.342,10.2h-3.011l-2.175-9.535a3.472,3.472,0,0,0-1-1.673,2.516,2.516,0,0,0-1.84-.669h-3.847a1.775,1.775,0,0,1-1.506,1.506h-8.866a1.775,1.775,0,0,1-1.506-1.506h-3.848a2.515,2.515,0,0,0-1.84.669A2.846,2.846,0,0,0,1031.873,1534.059Z" transform="translate(-1020 -1523.199)"/></svg>