<svg xmlns="http://www.w3.org/2000/svg" width="416.342" height="70" viewBox="0 0 416.342 70"><defs><style>.a{fill:none;}.b{fill:#260;}.c{fill:orange;}.d{fill:#fff;}</style></defs><g transform="translate(25.064 4)"><rect class="a" width="206.671" height="60" rx="10" transform="translate(8.329)"/><g transform="translate(44.936 3)"><path class="b" d="M9.843-26.367a3.791,3.791,0,0,1,1.53-3.035,6.6,6.6,0,0,1,4.284-1.25,13.132,13.132,0,0,1,4.845.943,21.881,21.881,0,0,1,4.845,2.729l3.366-4.743a21.013,21.013,0,0,0-5.891-3.341,20.454,20.454,0,0,0-7.063-1.147,15.517,15.517,0,0,0-4.891.74,11.112,11.112,0,0,0-3.833,2.116,9.956,9.956,0,0,0-2.5,3.29,9.782,9.782,0,0,0-.91,4.258,10.149,10.149,0,0,0,.792,4.233,8.1,8.1,0,0,0,2.3,2.958,12.957,12.957,0,0,0,3.733,2.04A43.052,43.052,0,0,0,15.534-15.1,41.5,41.5,0,0,1,19.6-13.923a10.287,10.287,0,0,1,2.454,1.2,3.468,3.468,0,0,1,1.227,1.4,4.312,4.312,0,0,1,.332,1.734A3.869,3.869,0,0,1,21.9-6.273a7.779,7.779,0,0,1-4.615,1.224,14.462,14.462,0,0,1-6.018-1.2A21.93,21.93,0,0,1,6.018-9.69L2.244-5.2A21.583,21.583,0,0,0,9.231-.892,22.509,22.509,0,0,0,17.136.51,17.59,17.59,0,0,0,22.283-.2,11.481,11.481,0,0,0,26.294-2.3a9.61,9.61,0,0,0,2.6-3.366,10.54,10.54,0,0,0,.936-4.539,9.487,9.487,0,0,0-.741-3.9,8.362,8.362,0,0,0-2.173-2.907,12.441,12.441,0,0,0-3.6-2.117,40.264,40.264,0,0,0-4.985-1.581q-2.556-.612-4.218-1.173A10.4,10.4,0,0,1,11.5-23.1a3.754,3.754,0,0,1-1.3-1.428A4.305,4.305,0,0,1,9.843-26.367Zm44.319,14.6a6.841,6.841,0,0,1-1.669,4.91A5.726,5.726,0,0,1,48.146-5.1a5.311,5.311,0,0,1-4.222-1.7,7.153,7.153,0,0,1-1.491-4.859V-26.928H36.21V-9.792A10.951,10.951,0,0,0,38.7-2.244,8.96,8.96,0,0,0,45.771.561,8.55,8.55,0,0,0,50.857-.854a13.208,13.208,0,0,0,3.305-3.371V0h6.222V-26.928H54.162Zm41.82-1.7a15.6,15.6,0,0,0-1.069-5.967,13.773,13.773,0,0,0-2.824-4.412A11.71,11.71,0,0,0,88.1-26.571a12.094,12.094,0,0,0-4.63-.918,9.629,9.629,0,0,0-5.444,1.454,13.43,13.43,0,0,0-3.664,3.6v-4.488H68.136V8.16h6.222L74.307-4.182A14.19,14.19,0,0,0,77.928-.867,9.9,9.9,0,0,0,83.436.561,12.337,12.337,0,0,0,88.1-.357a11.678,11.678,0,0,0,4.029-2.729,13.428,13.428,0,0,0,2.8-4.411A15.9,15.9,0,0,0,95.982-13.464Zm-6.222,0a10.034,10.034,0,0,1-.612,3.6A8.263,8.263,0,0,1,87.49-7.14a7.306,7.306,0,0,1-2.448,1.734,7.378,7.378,0,0,1-2.984.612,7.559,7.559,0,0,1-3.009-.612,7.339,7.339,0,0,1-2.5-1.76,8.744,8.744,0,0,1-1.708-2.728,9.476,9.476,0,0,1-.638-3.57,9.476,9.476,0,0,1,.638-3.57,8.744,8.744,0,0,1,1.708-2.729,7.339,7.339,0,0,1,2.5-1.76,7.559,7.559,0,0,1,3.009-.612,7.378,7.378,0,0,1,2.984.612,7.306,7.306,0,0,1,2.448,1.734,8.263,8.263,0,0,1,1.658,2.728A10.034,10.034,0,0,1,89.76-13.464ZM107-11.271h19.788q.051-.459.076-.867t.025-.816a18.8,18.8,0,0,0-.816-5.559,13.721,13.721,0,0,0-2.423-4.641,11.589,11.589,0,0,0-4.029-3.162,12.789,12.789,0,0,0-5.635-1.173,12.356,12.356,0,0,0-5.3,1.122,13.181,13.181,0,0,0-4.157,3.035A13.708,13.708,0,0,0,101.8-18.87a15.233,15.233,0,0,0-.969,5.457A14.808,14.808,0,0,0,101.9-7.676a13.271,13.271,0,0,0,2.932,4.412,13.229,13.229,0,0,0,4.386,2.856,14.361,14.361,0,0,0,5.432,1.02,13.839,13.839,0,0,0,6.4-1.377,14.9,14.9,0,0,0,4.616-3.672L122.043-7.65a12.927,12.927,0,0,1-3.315,2.4,9.03,9.03,0,0,1-3.978.816,7.655,7.655,0,0,1-5.1-1.76A8.128,8.128,0,0,1,107-11.271Zm-.051-4.08a8.869,8.869,0,0,1,2.27-5.125,6.221,6.221,0,0,1,4.717-1.963,6.364,6.364,0,0,1,2.729.561,6.536,6.536,0,0,1,2.066,1.5,7.117,7.117,0,0,1,1.377,2.244,10.55,10.55,0,0,1,.663,2.779Zm32.385,5.1a14.934,14.934,0,0,1,.663-4.667,8.987,8.987,0,0,1,1.887-3.34,7.794,7.794,0,0,1,2.907-1.989,10.076,10.076,0,0,1,3.723-.663h.357v-6.528a8.675,8.675,0,0,0-5.916,1.683,11.859,11.859,0,0,0-3.621,4.9v-6.069H133.11V0h6.222ZM176.6-22.7a8.661,8.661,0,0,0-3.084-3.474,8.815,8.815,0,0,0-4.919-1.312,9.379,9.379,0,0,0-2.778.386,8.472,8.472,0,0,0-2.243,1.055,10.005,10.005,0,0,0-1.758,1.493,17.823,17.823,0,0,0-1.427,1.75v-4.122h-6.222V0H160.4V-15.112a7.2,7.2,0,0,1,1.574-4.935,5.284,5.284,0,0,1,4.163-1.781,4.967,4.967,0,0,1,4.011,1.679,7.285,7.285,0,0,1,1.422,4.834V0h6.222V-15.163a6.99,6.99,0,0,1,1.6-4.961,5.417,5.417,0,0,1,4.137-1.7,4.967,4.967,0,0,1,4.011,1.679,7.372,7.372,0,0,1,1.422,4.885V0h6.222V-17.187q0-4.947-2.5-7.625a9.03,9.03,0,0,0-6.94-2.678,10.191,10.191,0,0,0-5.281,1.312A13.273,13.273,0,0,0,176.6-22.7ZM225.216,0V-15.963q0-5.406-2.907-8.389t-8.925-2.983a22.7,22.7,0,0,0-5.661.612,28.4,28.4,0,0,0-4.59,1.632l1.683,4.947a26.728,26.728,0,0,1,3.621-1.224,16.44,16.44,0,0,1,4.08-.459,7.306,7.306,0,0,1,4.921,1.479,5.358,5.358,0,0,1,1.708,4.284v.663a25.139,25.139,0,0,0-3.289-.816,24.029,24.029,0,0,0-4.157-.306,16.93,16.93,0,0,0-4.36.535,10.2,10.2,0,0,0-3.468,1.607,7.442,7.442,0,0,0-2.27,2.7,8.453,8.453,0,0,0-.816,3.825v.1a7.831,7.831,0,0,0,.791,3.6,7.855,7.855,0,0,0,2.091,2.6A9.048,9.048,0,0,0,206.7.026a12.376,12.376,0,0,0,3.672.536,11.094,11.094,0,0,0,5.2-1.122A11.533,11.533,0,0,0,219.1-3.315V0Zm-5.967-9.741a5.015,5.015,0,0,1-.535,2.321,5.22,5.22,0,0,1-1.5,1.785,7.31,7.31,0,0,1-2.27,1.148,9.413,9.413,0,0,1-2.831.408,6.437,6.437,0,0,1-3.7-1.02,3.352,3.352,0,0,1-1.5-2.958v-.1a3.664,3.664,0,0,1,1.632-3.213,7.929,7.929,0,0,1,4.539-1.122,18.1,18.1,0,0,1,3.391.306,15.793,15.793,0,0,1,2.779.765Zm19.533-.51a14.934,14.934,0,0,1,.663-4.667,8.987,8.987,0,0,1,1.887-3.34,7.794,7.794,0,0,1,2.907-1.989,10.076,10.076,0,0,1,3.723-.663h.357v-6.528a8.675,8.675,0,0,0-5.916,1.683,11.859,11.859,0,0,0-3.621,4.9v-6.069H232.56V0h6.222ZM261.12-21.675h7.242v-5.253H261.12v-7.4H254.9v7.4h-3.417v5.253H254.9V-7.464a10.781,10.781,0,0,0,.566,3.757,5.9,5.9,0,0,0,1.62,2.428A6.384,6.384,0,0,0,259.577.05,11.4,11.4,0,0,0,262.7.459,11.818,11.818,0,0,0,265.761.1a10.721,10.721,0,0,0,2.5-1.02V-5.967a8.449,8.449,0,0,1-3.825.918,3.5,3.5,0,0,1-2.448-.793,3.356,3.356,0,0,1-.867-2.583ZM280.908,0V-6.987h-6.783V0Zm13.566-15.163a6.841,6.841,0,0,1,1.669-4.91,5.726,5.726,0,0,1,4.348-1.756,5.311,5.311,0,0,1,4.222,1.7,7.153,7.153,0,0,1,1.491,4.859V0h6.222V-17.136a10.951,10.951,0,0,0-2.492-7.548,8.96,8.96,0,0,0-7.069-2.805,9.526,9.526,0,0,0-2.822.386,9.327,9.327,0,0,0-2.289,1.055,9.427,9.427,0,0,0-1.831,1.518,15.192,15.192,0,0,0-1.45,1.827v-4.225h-6.222V0h6.222Zm51.867,9.655v-21.42H340.17v4.074a15.319,15.319,0,0,0-3.8-3.27,10.6,10.6,0,0,0-5.635-1.365,12.436,12.436,0,0,0-4.565.867,11.9,11.9,0,0,0-3.927,2.5,12.09,12.09,0,0,0-2.728,3.978,13.312,13.312,0,0,0-1.02,5.355,13.312,13.312,0,0,0,1.02,5.355,12.09,12.09,0,0,0,2.728,3.978,11.625,11.625,0,0,0,3.9,2.474,12.7,12.7,0,0,0,4.59.842,10.369,10.369,0,0,0,5.559-1.391,14.526,14.526,0,0,0,3.927-3.605v2.1q0,4.1-2.193,6.2a8.788,8.788,0,0,1-6.324,2.1,16.364,16.364,0,0,1-5.1-.765A20.686,20.686,0,0,1,322.116.408l-2.295,4.641a22.768,22.768,0,0,0,12.036,3.213q6.936,0,10.71-3.315T346.341-5.508Zm-6.069-9.282a6.937,6.937,0,0,1-.638,3.013,7.533,7.533,0,0,1-1.708,2.33,7.457,7.457,0,0,1-2.525,1.52,8.76,8.76,0,0,1-3.034.532,8.342,8.342,0,0,1-2.983-.532,7.01,7.01,0,0,1-2.423-1.52,7.509,7.509,0,0,1-1.632-2.355,7.358,7.358,0,0,1-.612-3.039,7.635,7.635,0,0,1,.586-3.039,6.724,6.724,0,0,1,1.632-2.33,7.564,7.564,0,0,1,2.422-1.494,8.282,8.282,0,0,1,3.009-.532,8.76,8.76,0,0,1,3.034.532,7.681,7.681,0,0,1,2.525,1.494,7.084,7.084,0,0,1,1.708,2.355A7.277,7.277,0,0,1,340.272-14.79Z" transform="translate(0 47)"/></g><g transform="translate(-25.064 -4)"><rect class="a" width="70" height="70" transform="translate(0 0)"/><g transform="translate(5.831 5.833)"><g transform="translate(19.709)"><path class="b" d="M673.854,177.99s-2.807,11.44-10.286,9.429C663.568,187.419,662.488,179.72,673.854,177.99Z" transform="translate(-643.016 -177.99)"/><path class="c" d="M20528.211,19026.311c-3.937,1.193-8.105-.727-12.168-3.023a4.791,4.791,0,0,1-1.762-1.811c-.344-.049-.562-.088-.562-.088-7.2-1.834-5.039-13.121-4.746-17.437s-1.543-11.818,2.367-16.311c3.074-3.521,6.16-2.416,7.34-1.777a10.205,10.205,0,0,1,2.938-1.061c1.637-.354,3.328.563,4.793,1.471,1.43.877,2.637,1.764,3.387,1.49,1.52-.547,3.418-3.084,11.281,1.7a5.613,5.613,0,0,1,2.473,3.234,15.024,15.024,0,0,1,1.578,1.336c4.641,4.4-.488,14.16-.488,14.16s-4.465,12.055-8.535,16.742a5.852,5.852,0,0,1-4.535,2.211A7.992,7.992,0,0,1,20528.211,19026.311Z" transform="translate(-20508.445 -18977.092)"/><path class="d" d="M772.9,486.489c1.225.47.849,4.879-.84,9.849s-4.051,8.617-5.275,8.148,1.769-2.951,3.458-7.92S771.671,486.019,772.9,486.489Z" transform="translate(-739.225 -465)"/></g><g transform="translate(0 6.066)"><path class="b" d="M20536.2,19020.795c-4.344-4.83-9.117-17.266-9.117-17.266s-5.477-10.068-.527-14.621a19.165,19.165,0,0,1,2.248-1.752,5.682,5.682,0,0,1,2.088-2.035c4.969-2.854,7.709-3.117,9.451-2.746a5.359,5.359,0,0,1,3.461.668,8.971,8.971,0,0,1,4.557-2.375c.457-.074.9-.131,1.346-.172a4.619,4.619,0,0,1,1.639-.123,3.635,3.635,0,0,1,1.275.014c.186.033.359.076.543.121a3.829,3.829,0,0,1,1.121.3s4.2-3.1,8.383,1.52,2.211,12.371,2.525,16.826,2.615,16.111-5.072,17.986c0,0-.2.033-.516.076a4.974,4.974,0,0,1-1.965,1.979c-4.35,2.322-8.814,4.252-13.021,3.035a8.688,8.688,0,0,1-3.561.855A6.327,6.327,0,0,1,20536.2,19020.795Z" transform="translate(-20524.484 -18970.813)"/><path class="d" d="M524.884,590.91c1.391,0,2.519,4.308,2.519,9.623s-1.128,9.623-2.519,9.623.77-3.434.77-8.748S523.494,590.91,524.884,590.91Z" transform="translate(-494.659 -569.426)"/><path class="b" d="M10.974,0S7.99,11.24.029,9.262C.029,9.262-1.122,1.7,10.974,0Z" transform="matrix(-0.017, -1, 1, -0.017, 10.658, 11.138)"/></g></g></g></g></svg>