<svg xmlns="http://www.w3.org/2000/svg" width="35.871" height="35.871" viewBox="0 0 35.871 35.871"><defs><style>.a{fill:none;}.b{fill:#260;}.c{fill:orange;}.d{fill:#fff;}</style></defs><g transform="translate(0 0)"><rect class="a" width="35.871" height="35.871" transform="translate(0 0)"/><g transform="translate(2.988 2.989)"><g transform="translate(10.1)"><path class="b" d="M668.825,177.99s-1.438,5.862-5.271,4.832C663.555,182.822,663,178.877,668.825,177.99Z" transform="translate(-653.023 -177.99)"/><path class="c" d="M20518.576,19006.031c-2.021.611-4.156-.371-6.238-1.547a2.441,2.441,0,0,1-.9-.928c-.178-.025-.287-.047-.287-.047-3.687-.937-2.584-6.723-2.434-8.936s-.789-6.057,1.215-8.359a2.89,2.89,0,0,1,3.758-.908,5.224,5.224,0,0,1,1.506-.543,3.533,3.533,0,0,1,2.457.752c.734.451,1.352.9,1.736.766.779-.281,1.752-1.582,5.779.871a2.877,2.877,0,0,1,1.27,1.656,8.363,8.363,0,0,1,.809.684c2.379,2.256-.252,7.258-.252,7.258s-2.289,6.176-4.373,8.578a3,3,0,0,1-2.324,1.135A4.039,4.039,0,0,1,20518.576,19006.031Z" transform="translate(-20508.445 -18980.811)"/><path class="d" d="M769.774,486.475c.628.241.435,2.5-.43,5.047s-2.076,4.416-2.7,4.175.906-1.512,1.772-4.059S769.147,486.235,769.774,486.475Z" transform="translate(-752.52 -475.463)"/></g><g transform="translate(0 3.109)"><path class="b" d="M20530.484,19000.8c-2.225-2.473-4.672-8.848-4.672-8.848s-2.8-5.16-.27-7.492a10.05,10.05,0,0,1,1.152-.9,2.9,2.9,0,0,1,1.07-1.041c2.547-1.463,3.951-1.6,4.846-1.408a2.747,2.747,0,0,1,1.77.342,4.6,4.6,0,0,1,2.338-1.217c.232-.039.463-.066.689-.088a2.3,2.3,0,0,1,.838-.062,1.888,1.888,0,0,1,.654.006c.1.016.184.041.277.063a1.99,1.99,0,0,1,.576.152,3.154,3.154,0,0,1,4.293.779c2.141,2.367,1.135,6.338,1.295,8.621s1.342,8.256-2.6,9.217c0,0-.1.018-.266.039a2.542,2.542,0,0,1-1.006,1.016c-2.229,1.189-4.516,2.176-6.674,1.555a4.448,4.448,0,0,1-1.824.436A3.241,3.241,0,0,1,20530.484,19000.8Z" transform="translate(-20524.482 -18975.188)"/><path class="d" d="M524.657,590.91c.713,0,1.291,2.208,1.291,4.931s-.578,4.931-1.291,4.931.395-1.76.395-4.483S523.944,590.91,524.657,590.91Z" transform="translate(-509.168 -579.901)"/><path class="b" d="M5.623,0S4.095,5.76.015,4.746C.015,4.746-.575.869,5.623,0Z" transform="matrix(-0.017, -1, 1, -0.017, 5.462, 5.707)"/></g></g></g></svg>